Coordinates
version=1
nRows=16
nColumns=36
inDegrees=yes

Units are S.I. units (second, meters, Newtons, ...)
If the header above contains a line with 'inDegrees', this indicates whether rotational values are in degrees (yes) or radians (no).

endheader
time	pelvis_tilt	pelvis_list	pelvis_rotation	pelvis_tx	pelvis_ty	pelvis_tz	hip_flexion_r	hip_adduction_r	hip_rotation_r	knee_angle_r	knee_angle_r_beta	ankle_angle_r	subtalar_angle_r	mtp_angle_r	hip_flexion_l	hip_adduction_l	hip_rotation_l	knee_angle_l	knee_angle_l_beta	ankle_angle_l	subtalar_angle_l	mtp_angle_l	lumbar_extension	lumbar_bending	lumbar_rotation	arm_flex_r	arm_add_r	arm_rot_r	elbow_flex_r	pro_sup_r	arm_flex_l	arm_add_l	arm_rot_l	elbow_flex_l	pro_sup_l
     44.83333330	     -2.35746721	      0.53564804	     -3.05803332	      1.08637803	      0.93319571	      0.70226176	     24.65307151	     -1.40026157	      7.19663000	     58.44943468	      1.02013508	      2.85337104	    -16.73938533	     -7.49999987	      8.05869794	      0.35135801	      1.76201081	     18.93540512	      0.33048516	     10.70156228	     -5.97822163	     -7.49999987	    -10.58781863	     -1.65806809	      3.48751116	     -0.20834224	    -15.02069687	     14.25424874	     24.57141374	     76.73505443	      3.07330554	    -11.42136930	      7.47658070	     23.96598911	     76.34060557
     44.85000000	     -2.84413482	      0.12883595	     -3.18521273	      1.08305494	      0.93567531	      0.69991854	     26.35926350	     -1.40177287	      6.82782801	     54.35875612	      0.94873927	      4.24386931	    -16.28607497	     -7.49999987	      7.35168945	     -0.00808501	      1.24063968	     18.56263815	      0.32397915	     11.88980679	     -4.55488923	     -7.49999987	    -10.49237768	     -0.80795083	      3.21888320	     -0.02102690	    -15.45845019	     14.37175215	     24.34514936	     78.21325663	      3.53898734	    -11.53262232	     10.12615825	     25.29872017	     77.87546545
     44.86666670	     -3.23242704	     -0.19466606	     -3.29749262	      1.08010585	      0.93944951	      0.69877794	     27.50203872	     -1.59390355	      6.47266824	     49.34985944	      0.86131753	      4.88807784	    -15.67949917	     -7.49999987	      6.57540817	     -0.21206105	      1.34173914	     18.12786494	      0.31639093	     12.22046952	     -4.56934746	     -7.49999987	    -10.63664641	     -0.03662725	      2.86597250	      0.00489325	    -15.76438197	     13.56462103	     24.46542966	     77.87966697	      3.73620795	    -11.24288413	     10.14980795	     26.55983921	     77.63187494
     44.88333330	     -3.52326973	     -0.38529367	     -3.49128576	      1.07767478	      0.94435329	      0.69923783	     28.20530279	     -1.90985394	      6.23213465	     43.64382263	      0.76172840	      4.95724795	    -14.79350631	     -7.49999987	      5.73032566	     -0.34448339	      1.31958586	     17.72950797	      0.30943829	     12.59947891	     -4.39640031	     -7.49999987	    -10.98025171	      0.52778005	      2.52591836	     -0.00430065	    -15.81083971	     12.60418381	     24.54932298	     77.81167642	      3.83599990	    -11.12084345	     10.41075919	     27.81606918	     77.66288917
     44.90000000	     -3.77946034	     -0.40616013	     -3.65405061	      1.07554487	      0.94774454	      0.70018347	     28.69748192	     -2.42208452	      5.90788277	     37.53603761	      0.65512744	      4.71603298	    -13.45586205	     -7.49999987	      4.83741688	     -0.24899104	      1.59587469	     17.21726248	      0.30049792	     12.84051013	     -4.77067157	     -7.49999987	    -11.32923265	      0.86102886	      2.05262852	     -0.09474128	    -15.62745749	     11.62570348	     24.63137446	     77.47438490	      4.03073505	    -10.97055426	     10.46770782	     28.81740148	     77.41978259
     44.91666670	     -4.01087767	     -0.28267108	     -3.79465325	      1.07399361	      0.94839598	      0.70174847	     29.12680142	     -3.01278550	      5.55954297	     31.45229685	      0.54894614	      4.46944641	    -11.60307019	     -7.49999987	      3.87999147	      0.00312278	      1.84479366	     16.60081927	      0.28973895	     13.32538094	     -5.03855204	     -7.49999987	    -11.63381359	      0.95309273	      1.50300383	     -0.26510746	    -15.36381644	     10.84538710	     24.82422102	     77.34906731	      4.36001576	    -10.88299809	     10.51374120	     29.81438005	     77.44344798
     44.93333330	     -4.02225352	     -0.16035807	     -3.78679698	      1.07365490	      0.94564935	      0.70408011	     29.31848362	     -3.58503944	      4.87659369	     25.73505724	      0.44916148	      4.56786779	     -9.12163196	     -7.49999987	      2.55447276	      0.19988938	      2.04081001	     15.76811952	      0.27520560	     14.08803074	     -4.75486828	     -7.49999987	    -12.14508721	      0.91752353	      0.77240297	     -0.33861431	    -14.75593372	      9.31788625	     24.78514859	     77.13530973	      4.52420345	    -11.04708913	     10.91588020	     31.72834807	     77.26344145
     44.95000000	     -4.16501586	     -0.03498099	     -3.64149663	      1.07338330	      0.93923453	      0.70600545	     29.76230307	     -4.07914180	      4.11737102	     20.66437831	      0.36066144	      5.18275157	     -6.45465955	     -7.49999987	      1.43125031	      0.37381416	      2.80879759	     15.13041783	      0.26407561	     14.69916169	     -5.16743229	     -7.49999987	    -12.37705837	      0.87478214	      0.03709840	     -0.52922569	    -14.23130926	      8.23747283	     24.92057107	     77.31452689	      4.86192076	    -11.01064246	     11.00380458	     32.92678767	     77.46622973
     44.96666670	     -4.41998969	     -0.01934591	     -3.50973736	      1.07223480	      0.93051901	      0.70768097	     30.46202839	     -4.28094415	      3.65145136	     16.38088132	      0.28590031	      6.31835690	     -3.89193164	     -7.49999987	      0.59898412	      0.29718572	      3.27582834	     14.98406539	      0.26152128	     15.75369723	     -5.01119184	     -7.49999987	    -12.44261723	      0.96672993	     -0.69123017	     -0.82008019	    -13.71811251	      6.82613809	     25.36052357	     77.39451532	      4.89809529	    -11.08738684	     11.27056449	     34.33364294	     77.43666908
     44.98333330	     -4.85163803	     -0.10149824	     -3.31039010	      1.06904640	      0.92360742	      0.71051888	     31.50060950	     -4.24402633	      3.40736823	     13.06463797	      0.22802095	      7.87934146	     -1.18503917	     -7.49999987	      0.25438409	      0.05884770	      3.78019851	     15.45198432	      0.26968800	     17.03296181	     -4.94614516	     -7.49999987	    -12.31578406	      1.15533754	     -1.23062912	     -1.14263741	    -13.29835952	      5.87390054	     25.88637194	     76.89809790	      5.05665502	    -11.15694617	     11.78785556	     35.16854288	     76.82309583
     45.00000000	     -5.32405765	     -0.30337162	     -3.09769837	      1.06499025	      0.92022973	      0.71488820	     32.58823431	     -3.90301311	      3.44070864	     10.62131068	      0.18537684	      9.26270120	      1.42613780	     -7.49999987	      0.11480898	     -0.33805479	      4.01314726	     16.22627743	      0.28320197	     18.41416243	     -4.86797237	     -7.49999987	    -12.16507185	      1.43297563	     -1.60149365	     -1.36432597	    -12.96801746	      5.09770735	     26.38752996	     76.91555535	      5.28545549	    -11.31966904	     12.48759994	     35.72955132	     76.74590101
     45.01666670	     -5.74612290	     -0.61990272	     -2.88988400	      1.06287987	      0.91906070	      0.71932046	     33.50534515	     -3.27531681	      3.74432039	      9.01873673	      0.15740665	     10.08611391	      3.49775926	     -7.49999987	     -0.16058814	     -0.84194471	      4.05783138	     16.96549063	      0.29610367	     19.72204890	     -4.96561276	     -7.49999987	    -11.96754093	      1.79700183	     -2.01939940	     -1.44405632	    -12.76809648	      4.75059188	     26.94923776	     77.19389393	      5.45711946	    -11.50180652	     12.97341123	     35.85722301	     76.99665393
     45.03333330	     -5.96142228	     -1.09392351	     -2.72893475	      1.06424000	      0.91779797	      0.72336467	     33.95442274	     -2.35508375	      4.11705312	      8.11780314	      0.14168239	     10.29440264	      4.93523058	     -7.49999987	     -0.92079105	     -1.53830685	      3.72073643	     17.47481724	      0.30499310	     20.95958148	     -4.85681554	     -7.49999987	    -11.79409740	      2.25297263	     -1.83184192	     -1.96263265	    -12.65498076	      3.79035508	     27.61973844	     78.25782732	      5.93029133	    -11.63440399	     14.23100691	     35.37083993	     77.59643572
     45.05000000	     -6.19071049	     -1.56172297	     -2.63087080	      1.06773381	      0.91641294	      0.72830990	     34.22051210	     -1.29339401	      4.66056494	      8.02996496	      0.14014933	      9.95838303	      5.38889963	     -7.49999987	     -1.91367771	     -2.22867892	      3.61059212	     17.75203950	      0.30983154	     21.81011315	     -5.21626224	     -7.49999987	    -11.39209335	      2.66404985	     -2.07425612	     -2.16267198	    -12.58420991	      3.75149759	     27.70721264	     78.25398670	      5.70001302	    -11.72466888	     14.31001916	     35.22131736	     77.58153677
     45.06666670	     -6.11230591	     -2.42298976	     -2.37705997	      1.07287988	      0.91479956	      0.73425716	     33.70980262	      0.09086271	      4.61750789	      8.30576725	      0.14496299	      9.02582212	      5.41197440	     -7.49999987	     -3.23258560	     -3.48636218	      3.17114988	     18.19487907	      0.31756055	     22.53103514	     -4.94897503	     -7.49999987	    -11.09490229	      3.57393934	     -2.44802429	     -2.40594979	    -12.73326387	      3.66981178	     27.61956349	     78.32729236	      5.40905124	    -11.60452067	     14.52229181	     34.49527422	     77.54649207
     45.08333330	     -5.75413964	     -3.15242042	     -2.27954398	      1.07846974	      0.91415369	      0.74056505	     32.81541684	      1.47166462	      4.53244064	      9.25091845	      0.16145899	      7.73047170	      5.08023498	     -7.49999987	     -4.80371906	     -4.66357719	      2.58304193	     18.71732897	      0.32667902	     22.87770889	     -4.51392194	     -7.49999987	    -10.94305842	      4.20688346	     -2.54059466	     -2.63618285	    -12.78496958	      3.66228549	     27.01939797	     78.53236254	      5.20663105	    -11.42964748	     14.69697275	     33.20330579	     77.45899566
